<svg width="19" height="19" viewBox="0 0 19 19" fill="none" xmlns="http://www.w3.org/2000/svg">
<path d="M18.2812 9.28125C18.2812 14.2518 14.2518 18.2812 9.28125 18.2812C4.31067 18.2812 0.28125 14.2518 0.28125 9.28125C0.28125 4.31067 4.31067 0.28125 9.28125 0.28125C14.2518 0.28125 18.2812 4.31067 18.2812 9.28125ZM8.24023 14.0467L14.9176 7.36926C15.1444 7.14252 15.1444 6.77486 14.9176 6.54812L14.0965 5.72698C13.8698 5.5002 13.5021 5.5002 13.2753 5.72698L7.82964 11.1726L5.28717 8.63017C5.06043 8.40342 4.69277 8.40342 4.466 8.63017L3.64485 9.45131C3.41811 9.67805 3.41811 10.0457 3.64485 10.2724L7.41905 14.0466C7.64583 14.2734 8.01345 14.2734 8.24023 14.0467Z" fill="#CED3E3"/>
</svg>
